<!-- Generated by IcoMoon.io -->
<svg version="1.1" xmlns="http://www.w3.org/2000/svg" width="32" height="32" viewBox="0 0 32 32">
<title>email</title>
<path d="M2.788 6.091c-0.715 0-1.321 0.606-1.321 1.321v17.176c0 0.715 0.606 1.321 1.321 1.321h26.424c0.715 0 1.321-0.606 1.321-1.321v-17.176c0-0.715-0.606-1.321-1.321-1.321h-26.424zM4.966 8.073h22.068l-11.034 10.208-11.034-10.208zM3.448 9.363l6.823 6.307-6.823 6.823v-13.13zM28.552 9.363v13.13l-6.823-6.823 6.823-6.307zM11.727 17.022l3.602 3.334c0.176 0.162 0.412 0.262 0.671 0.262s0.495-0.099 0.672-0.262l-0.001 0.001 3.602-3.334 6.905 6.905h-22.357l6.905-6.905z"></path>
</svg>
