<!-- Generated by IcoMoon.io -->
<svg version="1.1" xmlns="http://www.w3.org/2000/svg" width="32" height="32" viewBox="0 0 32 32">
<title>key</title>
<path d="M15.154 3.977c-2.527 2.527-3.245 6.146-2.237 9.342l-11.153 11.153c-0.12 0.12-0.201 0.28-0.222 0.458l-0 0.004-0.521 4.944c-0.003 0.025-0.004 0.054-0.004 0.083 0 0.427 0.346 0.773 0.773 0.773 0.045 0 0.090-0.004 0.133-0.011l-0.005 0.001 6.533-1.119c0.344-0.060 0.607-0.341 0.64-0.689l0-0.003 0.214-2.365 2.365-0.214c0.372-0.035 0.666-0.328 0.7-0.697l0-0.003 0.214-2.365 2.365-0.214c0.188-0.017 0.354-0.098 0.478-0.222l3.51-3.51c3.193 1.001 6.81 0.295 9.334-2.229 3.616-3.616 3.616-9.501 0-13.117s-9.501-3.616-13.117 0zM16.248 5.070c3.025-3.025 7.906-3.025 10.931 0s3.025 7.906 0 10.931c-2.226 2.226-5.476 2.807-8.232 1.759-0.079-0.030-0.17-0.047-0.265-0.047-0.213 0-0.407 0.086-0.546 0.226l-3.595 3.595-2.741 0.248c-0.372 0.035-0.666 0.328-0.7 0.697l-0 0.003-0.213 2.365-2.366 0.214c-0.372 0.035-0.666 0.328-0.7 0.697l-0 0.003-0.213 2.417-4.944 0.845 0.376-3.638 11.272-11.272c0.137-0.139 0.222-0.331 0.222-0.542 0-0.1-0.019-0.195-0.053-0.283l0.002 0.005c-1.048-2.756-0.459-5.997 1.768-8.224zM21.44 6.437c-1.201 1.201-1.201 3.171 0 4.372s3.171 1.201 4.372 0c1.201-1.201 1.201-3.171 0-4.372s-3.171-1.201-4.372 0zM22.533 7.53c0.61-0.61 1.576-0.61 2.186 0s0.61 1.576 0 2.186c-0.61 0.61-1.576 0.61-2.186 0s-0.61-1.576 0-2.186z"></path>
</svg>
