<!-- Generated by IcoMoon.io -->
<svg version="1.1" xmlns="http://www.w3.org/2000/svg" width="32" height="32" viewBox="0 0 32 32">
<title>list</title>
<path d="M10.938 6.6h17.354c1.198 0 2.169 0.971 2.169 2.169s-0.971 2.169-2.169 2.169h-17.354c-1.198 0-2.169-0.971-2.169-2.169s0.971-2.169 2.169-2.169z"></path>
<path d="M10.938 13.831h17.354c1.198 0 2.169 0.971 2.169 2.169s-0.971 2.169-2.169 2.169h-17.354c-1.198 0-2.169-0.971-2.169-2.169s0.971-2.169 2.169-2.169z"></path>
<path d="M10.938 21.062h17.354c1.198 0 2.169 0.971 2.169 2.169s-0.971 2.169-2.169 2.169h-17.354c-1.198 0-2.169-0.971-2.169-2.169s0.971-2.169 2.169-2.169z"></path>
<path d="M5.877 8.769c0 1.198-0.971 2.169-2.169 2.169s-2.169-0.971-2.169-2.169c0-1.198 0.971-2.169 2.169-2.169s2.169 0.971 2.169 2.169z"></path>
<path d="M5.877 16c0 1.198-0.971 2.169-2.169 2.169s-2.169-0.971-2.169-2.169c0-1.198 0.971-2.169 2.169-2.169s2.169 0.971 2.169 2.169z"></path>
<path d="M5.877 23.231c0 1.198-0.971 2.169-2.169 2.169s-2.169-0.971-2.169-2.169c0-1.198 0.971-2.169 2.169-2.169s2.169 0.971 2.169 2.169z"></path>
</svg>
