<!-- Generated by IcoMoon.io -->
<svg version="1.1" xmlns="http://www.w3.org/2000/svg" width="32" height="32" viewBox="0 0 32 32">
<title>user</title>
<path d="M16 1c-8.272 0-15 6.728-15 15s6.728 15 15 15c8.272 0 15-6.728 15-15s-6.728-15-15-15zM16 3c7.192 0 13 5.808 13 13 0 2.434-0.664 4.711-1.823 6.656-2.746-3.065-6.742-4.99-11.177-4.99-4.44 0-8.433 1.929-11.177 5-1.162-1.947-1.823-4.229-1.823-6.667 0-7.192 5.808-13 13-13zM16 4c-3.486 0-6.333 2.847-6.333 6.333s2.847 6.333 6.333 6.333c3.486 0 6.333-2.847 6.333-6.333s-2.847-6.333-6.333-6.333zM16 6c2.405 0 4.333 1.928 4.333 4.333s-1.928 4.333-4.333 4.333c-2.405 0-4.333-1.928-4.333-4.333s1.928-4.333 4.333-4.333zM16 19.667c4.014 0 7.584 1.823 9.969 4.677-2.383 2.846-5.958 4.656-9.969 4.656s-7.586-1.81-9.969-4.656c2.383-2.857 5.952-4.677 9.969-4.677z"></path>
</svg>
